<svg xmlns="http://www.w3.org/2000/svg" viewBox="0 0 140.04 65.83" style="width:40px;"><defs><style>.cls-1{stroke:#000;stroke-miterlimit:10;stroke-width:0.97px;}</style></defs><g id="Capa_2" data-name="Capa 2"><g id="Capa_1-2" data-name="Capa 1"><path class="cls-1" d="M114.14,65.34a8.82,8.82,0,0,1-8.92-10A11.06,11.06,0,0,1,116,45.66a8.84,8.84,0,0,1,8.92,10A11.07,11.07,0,0,1,114.14,65.34ZM116,48a8.74,8.74,0,0,0-8.47,7.67,6.73,6.73,0,0,0,1.63,5.28,6.63,6.63,0,0,0,5,2.15,8.73,8.73,0,0,0,8.46-7.67A6.73,6.73,0,0,0,121,50.1,6.66,6.66,0,0,0,116,48Z"></path><path class="cls-1" d="M98.75,54.92h0a3.93,3.93,0,0,1-3.95-4.4l4-38.47a4.75,4.75,0,0,1,4.61-4.17h16.09a7.45,7.45,0,0,1,5.73,3l12.81,19.92a11.33,11.33,0,0,1,1.47,6.4l-1.41,13.47a4.75,4.75,0,0,1-4.61,4.17H127l0-1.11a10.37,10.37,0,0,0-10.59-10.17,13.72,13.72,0,0,0-13,10.43l-.21.88Zm4.67-44.75a2.44,2.44,0,0,0-2.33,2.12l-4,38.46a1.7,1.7,0,0,0,.41,1.34,1.65,1.65,0,0,0,1.26.54v0h2.69a16.07,16.07,0,0,1,15-11.31,12.61,12.61,0,0,1,12.8,11.28h4.29a2.44,2.44,0,0,0,2.33-2.12L137.24,37a9.16,9.16,0,0,0-1.11-4.92L123.32,12.16a5.18,5.18,0,0,0-3.81-2Zm24.25,21.94H109a3.21,3.21,0,0,1-2.4-1.05,3.25,3.25,0,0,1-.8-2.52L107,17.24a3.79,3.79,0,0,1,3.68-3.34h6.87A5.69,5.69,0,0,1,122,16.29l7.77,12.2a2.39,2.39,0,0,1,.21,2.45A2.51,2.51,0,0,1,127.67,32.11Zm-17-15.92a1.49,1.49,0,0,0-1.41,1.29l-1.18,11.3a.92.92,0,0,0,.22.74.93.93,0,0,0,.7.3h18.67l.21,0a.59.59,0,0,1,0-.08l-7.78-12.2a3.47,3.47,0,0,0-2.52-1.33Z"></path><path class="cls-1" d="M51.63,65.34a8.82,8.82,0,0,1-8.92-10,11.07,11.07,0,0,1,10.74-9.72,8.84,8.84,0,0,1,8.92,10A11.07,11.07,0,0,1,51.63,65.34ZM53.45,48A8.74,8.74,0,0,0,45,55.62a6.73,6.73,0,0,0,1.63,5.28,6.63,6.63,0,0,0,5,2.15,8.73,8.73,0,0,0,8.46-7.67,6.73,6.73,0,0,0-1.63-5.28A6.66,6.66,0,0,0,53.45,48Z"></path><path class="cls-1" d="M29.05,19.1a2.67,2.67,0,0,0-2.68-2.67H3.16a2.67,2.67,0,0,0,0,5.34H26.37A2.67,2.67,0,0,0,29.05,19.1Z"></path><path class="cls-1" d="M96.44,1.78a4,4,0,0,0-3-1.29H38.35a4.75,4.75,0,0,0-4.61,4.17L33.5,7H13.56a2.67,2.67,0,0,0,0,5.34H32.94L31.52,25.87H24.69a2.67,2.67,0,1,0,0,5.34H31l-.43,4.1H16.87a2.67,2.67,0,1,0,0,5.34H30l-1,9.87a3.94,3.94,0,0,0,4,4.41h7.81l.21-.89a13.72,13.72,0,0,1,13-10.43,10.36,10.36,0,0,1,10.59,10.2l0,1.12H88a4.76,4.76,0,0,0,4.61-4.18L97.43,4.9A4,4,0,0,0,96.44,1.78ZM95.15,4.66l-4.8,45.86A2.45,2.45,0,0,1,88,52.64H66.7A12.6,12.6,0,0,0,53.9,41.32a16.07,16.07,0,0,0-15,11.32h-6a1.7,1.7,0,0,1-1.27-.54,1.73,1.73,0,0,1-.41-1.35l1.06-10.1.56-5.34.42-4.1.56-5.34,1.42-13.54L35.8,7,36,4.9a2.44,2.44,0,0,1,2.33-2.12H93.47a1.69,1.69,0,0,1,1.27.53A1.73,1.73,0,0,1,95.15,4.66Z"></path></g></g></svg>